<svg width="4" height="1" xmlns="http://www.w3.org/2000/svg" xmlns:xlink="http://www.w3.org/1999/xlink"><defs><path id="a" d="M0 55.045h57.374V.137H0z"/><path id="c" d="M36.694 36.866V.467H.496v36.399h36.198z"/><path id="e" d="M16.326 10.785V.09H.541v10.695h15.785z"/><path id="g" d="M16.272.115H.036v17.02h16.236V.114z"/><path id="i" d="M0 .599V15.63h16.29V.599H0z"/></defs><g fill="none" fill-rule="evenodd"><text transform="translate(-351 -224)" font-family="Helvetica" font-size="14" letter-spacing="5.24" fill="#EA5514">
                        <tspan x="46" y="67">TAKEO, </tspan>
                        <tspan x="46" y="92">SAGA</tspan>
                    </text><text transform="translate(-351 -224)" font-family="Helvetica" font-size="14" letter-spacing="5.24" fill="#EA5514">
                        <tspan x="42" y="128">“EGG FARM”</tspan>
                    </text><text font-family="TsukuARdGothicStd-B, FOT-TsukuARdGothic Std" font-size="16" font-weight="bold" letter-spacing="2.25" fill="#3A2315" transform="translate(-351 -224)">
                        <tspan x="223" y="162">養鶏場</tspan>
                        <tspan x="277.75" y="162" letter-spacing=".05">にっき</tspan>
                    </text><text font-family="TsukuARdGothicStd-B, FOT-TsukuARdGothic Std" font-size="16" font-weight="bold" letter-spacing="2.25" fill="#3A2315" transform="translate(-351 -224)">
                        <tspan x="362" y="162">養鶏場</tspan>
                        <tspan x="416.75" y="162" letter-spacing=".71">の</tspan>
                        <tspan x="433.46" y="162" letter-spacing="-.61">こ</tspan>
                        <tspan x="448.85" y="162" letter-spacing=".71">と</tspan>
                    </text><text font-family="TsukuARdGothicStd-B, FOT-TsukuARdGothic Std" font-size="16" font-weight="bold" letter-spacing="2.25" fill="#3A2315" transform="translate(-351 -224)">
                        <tspan x="678" y="162">卵の通信販売</tspan>
                    </text><text font-family="TsukuARdGothicStd-B, FOT-TsukuARdGothic Std" font-size="16" font-weight="bold" letter-spacing="1.81" fill="#3A2315" transform="translate(-351 -224)">
                        <tspan x="502" y="162">プ</tspan>
                        <tspan x="518.85" y="162" letter-spacing=".27">ロ</tspan>
                        <tspan x="535.12" y="162" letter-spacing=".71">の</tspan>
                        <tspan x="551.83" y="162" letter-spacing="2.25">お客様の声</tspan>
                    </text><text font-family="TsukuARdGothicStd-B, FOT-TsukuARdGothic Std" font-size="16" font-weight="bold" letter-spacing="2.25" fill="#3A2315" transform="translate(-351 -224)">
                        <tspan x="824" y="162">買</tspan>
                        <tspan x="842.25" y="162" letter-spacing=".71">え</tspan>
                        <tspan x="858.32" y="162" letter-spacing=".05">る</tspan>
                        <tspan x="874.05" y="162" letter-spacing="2.47">お</tspan>
                        <tspan x="892.52" y="162">店</tspan>
                    </text><text font-family="TsukuARdGothicStd-B, FOT-TsukuARdGothic Std" font-size="16" font-weight="bold" letter-spacing="2.25" fill="#3A2315" transform="translate(-351 -224)">
                        <tspan x="947" y="162">お問い合わせ</tspan>
                    </text><g transform="translate(109 -174.602)"><mask id="b" fill="#fff"><use xlink:href="#a"/></mask><path d="M34.477 16.497a.468.468 0 0 1-.233.069.412.412 0 0 1-.283-.118c-1.035-.946-2.501-1.433-4.348-1.433-2.135 0-4.018.658-4.037.668a.429.429 0 0 1-.531-.251c-.043-.107-1.03-2.627.304-3.676.398-.31.88-.47 1.438-.47a3.66 3.66 0 0 1 1.33.272c.438-.668 1.061-2.257 2.784-2.038 2.29.294 2.54 2.15 2.547 2.803.278-.107.61-.197.94-.197.705 0 1.213.4 1.439 1.128.594 1.921-1.268 3.183-1.35 3.243M28.387.137C8.346.137 0 18.246 0 29.02c0 8.73 4.597 20.612 15.395 25.716 1.606.765 3.991.336 5.936-3.873 2.768-5.992 3.522-18.328 2.598-20.897-.922-2.567-3.185-3.851-4.86-4.963 0 0 2.35-.857 3.27-2.14.925-1.29 1.92-5.055 6.54-5.055 5.117 0 7.262 4.583 6.29 11.73-.985 7.24 2.612 19.89 5.713 23.362 1.88 2.108 4.149.642 5.897-.716 4.597-3.569 10.595-12.33 10.595-22.35 0-10.015-6.8-29.697-28.987-29.697" fill="#E95516" mask="url(#b)"/></g><path d="M136.538-153.26c-.636 0-1.152.524-1.152 1.178 0 .652.516 1.177 1.152 1.177.64 0 1.158-.525 1.158-1.177 0-.654-.518-1.177-1.158-1.177" fill="#E95516"/><path d="M223.17-150.599c1.461 2.42 3.04 6.611 3.04 8.143 0 1.33-.908 2.217-2.21 2.217-1.106 0-1.619-.443-1.895-1.733-1.224-4.676-2.921-7.82-6-11.005-.553-.604-.75-.967-.75-1.491 0-.927.908-1.854 1.855-1.854 1.342 0 4.026 2.62 5.96 5.723m-13.144 9.917c0 1.088-1.343 3.829-2.803 5.643-1.224 1.491-2.408 2.216-3.75 2.216-4.42 0-8.29-7.94-8.29-17.01 0-2.176.277-4.958.632-6.328.237-1.008.869-1.572 1.776-1.572 1.224 0 2.053.726 2.053 1.814 0 .242 0 .242-.158 1.088-.237 1.37-.395 3.346-.395 5.079 0 3.708.632 6.973 1.816 9.513.869 1.854 1.816 2.983 2.566 2.983.829 0 1.776-1.33 2.882-3.95.395-.968.947-1.411 1.737-1.411 1.105 0 1.934.846 1.934 1.935M251.552-159.426c0-1.129.829-1.854 2.092-1.854.75 0 1.342.363 1.658.927.118.242.158.363.316 1.21.434 2.257 1.579 6.328 2.526 8.948 4.54-2.298 8.447-3.95 9.395-3.95 1.144 0 1.934.886 1.934 2.136 0 .685-.355 1.25-.987 1.572-.118.08-.237.12-.868.322-2.96 1.048-6.198 2.338-8.171 3.265.355.887.67 1.612.987 2.217.236.484.354.847.354 1.21 0 1.007-.907 1.813-2.012 1.813-.948 0-1.382-.564-2.685-3.385-.986.604-2.171 1.531-3 2.297-1.263 1.21-1.776 2.298-1.776 3.79 0 2.337 2.447 3.385 7.934 3.385 3.197 0 6.118-.363 8.33-1.048.236-.08.512-.121.75-.121 1.026 0 1.697.846 1.697 2.096 0 .968-.474 1.532-1.422 1.854-1.381.484-5.17.847-8.407.847-3.987 0-7.224-.444-9.04-1.17-2.487-1.047-3.869-2.982-3.869-5.481 0-3.628 2.132-6.41 7.422-9.755-1.303-3.466-3.158-9.916-3.158-11.125M304.88-162.49c1.223.646 4.027 1.452 6.08 1.734 1.223.161 1.815.766 1.815 1.814 0 1.128-.75 1.935-1.816 1.935-1.579 0-5.566-1.089-7.224-1.976-1.223-.645-1.776-1.29-1.776-2.096 0-1.007.79-1.934 1.619-1.934.355 0 .394 0 1.302.524m10.5 18.098c0 3.87-1.105 7.014-3.395 9.835-2.289 2.822-6.315 5.644-8.013 5.644-.908 0-1.816-.968-1.816-1.935 0-.565.277-1.129.711-1.492.158-.16.158-.16.987-.564 4.855-2.5 7.54-6.53 7.54-11.407 0-4.031-1.264-5.523-4.659-5.523-1.46 0-2.881.282-4.736.968-2.014.685-3.632 1.128-4.264 1.128-1.144 0-1.973-.846-1.973-1.974 0-1.008.592-1.613 1.776-1.855.356-.08 2.526-.604 4.066-1.048 2.21-.604 3.79-.846 5.526-.846 5.763 0 8.25 2.74 8.25 9.07M348.024-138.385h12.909c.434 0 .67-.242.67-.725v-.887h-13.579v1.612Zm13.58-4.434c0-.524-.198-.725-.75-.725h-12.158c-.474 0-.672.201-.672.725v.726h13.58v-.726Zm.868-2.902c-1.105-1.008-1.895-1.854-2.921-3.104h-9.553c-.868 1.21-1.54 2.056-2.526 3.104h5.33v-1.129c0-.846.789-1.45 1.854-1.45 1.066 0 1.856.644 1.856 1.45v1.129h5.96Zm1.145-3.104c2.052 1.895 4.46 3.426 8.131 5.16.79.362 1.106.846 1.106 1.612 0 1.088-.75 1.935-1.777 1.935-.907 0-3.276-1.33-6.039-3.426.04.241.04.322.04.524v4.111c0 1.814-.948 2.74-2.685 2.74h-4.658a15.574 15.574 0 0 0 3.79 2.621c1.658-1.169 3.04-2.298 4.144-3.426.593-.565.908-.766 1.422-.766.907 0 1.697.806 1.697 1.733s-.434 1.37-3.987 3.75c1.776.483 3.632.846 5.842 1.087 1.105.121 1.619.685 1.619 1.734 0 1.048-.671 1.773-1.698 1.773-.829 0-3.987-.604-5.605-1.089-4.618-1.29-8.408-3.829-11.092-7.416h-5.843v4.192a106.99 106.99 0 0 0 5.25-.766c1.185-.201 1.224-.201 1.5-.201.948 0 1.501.604 1.501 1.572 0 .765-.395 1.29-1.145 1.45-.947.243-4.619.888-6.671 1.17-1.342.201-7.659.967-8.013.967-.79 0-1.461-.846-1.461-1.814 0-.645.276-1.209.75-1.45.276-.122.514-.162 1.5-.243 1.46-.08 2.171-.12 3.198-.282v-11.286c-2.29 1.894-5.013 3.467-5.922 3.467-.946 0-1.736-.888-1.736-1.936 0-.523.236-1.007.631-1.29.079-.04.079-.04 1.776-.967 2.882-1.572 5.093-3.265 6.83-5.24h-7.974c-.67 0-1.145-.604-1.145-1.41 0-.766.474-1.371 1.145-1.371H352.8v-1.854h-10.737c-.592 0-1.066-.564-1.066-1.29 0-.726.474-1.33 1.066-1.33H352.8v-1.733h-13.46c-.632 0-1.106-.605-1.106-1.411s.434-1.371 1.105-1.371h7.934l-.67-1.169-.119-.241c-.316-.565-.355-.646-.355-.928 0-.886 1.065-1.652 2.21-1.652.632 0 1.067.282 1.421.886a44.804 44.804 0 0 1 1.698 3.104h6.474c.631-.887 1.183-1.854 1.815-2.983.435-.806.83-1.088 1.619-1.088 1.105 0 2.053.766 2.053 1.653 0 .403-.277.846-1.382 2.418h8.21c.632 0 1.106.605 1.106 1.37 0 .807-.474 1.412-1.105 1.412h-13.777v1.733h11.132c.552 0 1.026.604 1.026 1.33 0 .685-.474 1.29-1.026 1.29h-11.132v1.854h15.119c.63 0 1.105.564 1.105 1.37 0 .847-.434 1.411-1.105 1.411h-7.974ZM414.537-138.788c.75 1.733 1.382 3.668 1.382 4.152 0 .645-.513 1.048-1.224 1.048-.67 0-.908-.202-1.065-.967-.277-1.17-.75-2.5-1.066-3.266-.197-.403-.237-.523-.237-.725 0-.565.592-1.089 1.263-1.089.435 0 .71.243.947.847Zm-2.131 5.36c.079.283.079.364.079.485 0 .685-.513 1.128-1.303 1.128-.79 0-1.026-.241-1.184-1.29-.158-1.209-.474-2.62-.947-4.232-.119-.403-.119-.484-.119-.685 0-.645.474-1.048 1.263-1.048.908 0 1.303 1.007 2.21 5.643Zm1.776-18.299c.434 0 .672-.242.672-.686v-1.29h-8.645v1.976h7.973Zm.672-5.643c0-.443-.238-.686-.711-.686h-7.303c-.434 0-.631.202-.631.686v1.25h8.645v-1.25Zm-7.106 19.831c.395 1.653.908 5.039.908 6.128 0 .644-.632 1.168-1.382 1.168-.552 0-1.065-.322-1.223-.765-.04-.162-.04-.202-.08-.847-.039-1.25-.315-3.467-.631-5.24-.04-.242-.04-.323-.04-.444 0-.645.593-1.088 1.461-1.088.553 0 .79.283.987 1.088Zm7.776-23.015c1.816 0 2.724.926 2.724 2.78v5.684c0 1.855-.908 2.781-2.724 2.781h-9.315v1.855h13.617c.712 0 1.225.604 1.225 1.45 0 .767-.513 1.372-1.225 1.372H406.21v1.128c0 .484.197.725.67.725h10.461c2.013 0 2.763.807 2.763 3.024 0 3.748-.513 8.827-1.026 10.036-.553 1.33-1.579 1.855-3.671 1.855-3.395 0-4.382-.403-4.382-1.895 0-1.008.474-1.652 1.224-1.652.079 0 .237 0 .395.04.592.04 1.302.08 2.013.08 1.223 0 1.618-.282 1.776-1.37.237-1.29.474-4.837.474-6.65 0-.566-.158-.726-.71-.726h-10.658c-1.856 0-2.764-.968-2.764-2.862v-14.874c0-1.895.869-2.781 2.684-2.781h1.895a18.96 18.96 0 0 0 .79-2.903c.158-.766.71-1.169 1.54-1.169 1.144 0 2.052.645 2.052 1.492 0 .443-.316 1.41-.869 2.58h4.658Zm-11.052 23.217c0 1.653-.553 4.595-1.382 7.215-.158.605-.632.927-1.263.927-.948 0-1.658-.645-1.658-1.491 0-.202.04-.362.237-.927.592-1.774 1.223-4.515 1.302-6.046.08-.685.553-1.048 1.343-1.048.987 0 1.42.443 1.42 1.37Zm-3.04-19.993c0 .807-1.224 4.313-2.17 6.369-.356.726-.712 1.007-1.383 1.007-.907 0-1.697-.645-1.697-1.41 0-.242.04-.403.277-.968.591-1.33 1.342-3.547 1.697-5.16.236-.926.631-1.29 1.46-1.29 1.027 0 1.816.606 1.816 1.452Zm-7.026.121c.631 1.814 1.145 3.748 1.145 4.233 0 .765-.75 1.33-1.777 1.33-.908 0-1.223-.282-1.421-1.169-.158-.846-.552-2.137-.986-3.306-.119-.402-.158-.483-.158-.685 0-.847.789-1.491 1.855-1.491.671 0 1.066.322 1.342 1.088Zm-4.54 2.217c.514 1.25 1.027 2.781 1.027 3.225 0 .806-.869 1.572-1.777 1.572-.79 0-1.105-.282-1.381-1.129-.395-1.33-.987-2.781-1.461-3.668-.118-.282-.197-.524-.197-.725 0-.806.868-1.492 1.855-1.492.75 0 1.145.444 1.934 2.217Zm1.935 5.643c0-.846.71-1.491 1.697-1.491.987 0 1.776.645 1.776 1.491v1.653h4.382c.71 0 1.302.685 1.302 1.572 0 .847-.552 1.492-1.302 1.492h-4.382v2.499h5.132c.71 0 1.263.685 1.263 1.571 0 .927-.513 1.573-1.263 1.573h-5.25c-.08.685-.08.886-.158 1.209 1.934 1.25 3.079 2.177 4.579 3.587.473.484.67.887.67 1.41 0 1.009-.907 1.976-1.894 1.976-.632 0-.829-.12-1.5-.967-.71-.887-1.776-2.016-2.684-2.862-.513 1.169-1.026 2.055-1.737 2.983-1.58 2.015-4.145 3.95-5.21 3.95-1.027 0-1.895-.927-1.895-1.975 0-.685.197-.968 1.144-1.572 3.395-2.258 4.777-4.313 5.21-7.74h-5.288c-.75 0-1.303-.645-1.303-1.531 0-.927.553-1.612 1.303-1.612h5.408v-2.5h-4.5c-.75 0-1.303-.644-1.303-1.491 0-.887.552-1.572 1.302-1.572h4.5v-1.653Zm9.04-12.294c0 .726-.396 1.25-1.067 1.451-1.263.323-2.328.524-6.237 1.17-2.96.483-6 .846-6.947.846-.908 0-1.54-.726-1.54-1.733 0-.968.435-1.371 1.698-1.452 2.092-.12 8.92-1.25 11.605-1.935.593-.12.71-.16.948-.16.868 0 1.54.806 1.54 1.813Z" fill="#231916"/><g transform="translate(432.435 -164.448)"><mask id="d" fill="#fff"><use xlink:href="#c"/></mask><path d="M19.01 9.094v1.733c0 .483.197.685.67.685h9.238c.473 0 .75-.242.75-.725V9.094H19.01ZM29.668 4.86c0-.443-.237-.685-.711-.685h-9.276c-.474 0-.671.201-.671.685v1.613h10.658V4.86Zm.552-3.386c1.895 0 2.843.927 2.843 2.862v6.973c0 1.935-.948 2.903-2.843 2.903H18.536c-1.895 0-2.842-.968-2.842-2.903V4.337c0-1.935.908-2.862 2.803-2.862H30.22Zm-.197 22.855c-1.342 4.152-3.237 7.336-5.842 9.916-1.658 1.653-3.079 2.62-3.83 2.62-.907 0-1.775-.887-1.775-1.854 0-.685 0-.685 1.42-1.774 3.277-2.58 5.408-5.401 6.75-8.908h-2.21a22.087 22.087 0 0 1-7.658 8.787c-1.263.847-1.895 1.13-2.328 1.13-.87 0-1.62-.847-1.62-1.815 0-.443.159-.846.474-1.088.079-.081.079-.081.987-.605 2.921-1.814 5.053-3.87 6.711-6.41h-2.368c-2.29 2.621-5.21 4.879-6.277 4.879-.829 0-1.658-.928-1.658-1.855 0-.363.158-.766.435-1.007.118-.122.118-.122.986-.645 2.763-1.733 4.776-3.749 6.356-6.49h-4.777c-.71 0-1.184-.605-1.184-1.532s.474-1.532 1.184-1.532H35.47c.711 0 1.224.645 1.224 1.532s-.513 1.532-1.224 1.532H22.207a20.146 20.146 0 0 1-1.302 2.217H32.39c2.014 0 2.882.967 2.882 3.185 0 3.547-.593 8.545-1.224 9.955-.592 1.492-1.697 1.976-4.342 1.976-3.355 0-4.263-.484-4.263-2.177 0-.927.592-1.653 1.342-1.653h.276c.513.081 1.777.121 2.369.121 1.026 0 1.421-.282 1.658-1.088.316-1.088.71-4.555.71-6.288 0-.846-.237-1.13-.908-1.13h-.868ZM5.55 1.959c0-.887.79-1.492 1.855-1.492 1.066 0 1.855.646 1.855 1.492v6.973h3.356c.868 0 1.54.807 1.54 1.935 0 1.088-.632 1.854-1.54 1.854H9.259v9.594c.83-.484 1.343-.766 2.29-1.37.434-.283.83-.404 1.224-.404.908 0 1.658.806 1.658 1.774 0 .846-.356 1.209-2.527 2.58-3.591 2.337-8.644 4.836-9.67 4.836-.909 0-1.738-1.007-1.738-2.136 0-1.008.356-1.37 1.856-1.935a38.609 38.609 0 0 0 3.197-1.41V12.72H2.273c-.908 0-1.5-.766-1.5-1.894 0-1.129.631-1.895 1.5-1.895H5.55V1.96Z" fill="#231916" mask="url(#d)"/></g><path d="M890.212-171.808c.318 0 .634-.018.934-.018.672-.018.69-.128.69-1.352-.018-.31-.169-.456-.709-.475-.299 0-.597-.018-.915-.018v1.863Zm2.463 8.639c-.54-.676-1.361-1.297-2.22-1.754a.53.53 0 0 1-.3-.474c0-.33.281-.658.69-.658.542 0 2.017.877 2.894 1.772a.798.798 0 0 1 .261.584c0 .42-.39.822-.784.822-.186 0-.373-.091-.541-.292Zm-4.982-8.639h1.325v-1.881h-1.325v1.881Zm0-2.922h1.325v-1.17h-1.325v1.17Zm-1.195 1.06-.802.017c-.597 0-.747.201-.747.603 0 .968.075 1.224.784 1.224h.765v-1.845Zm-1.586 4.876c-.41 0-.634-.274-.634-.566 0-.274.224-.548.634-.548h6.942c.41 0 .617.274.617.548 0 .292-.207.566-.617.566h-6.942Zm5.394-7.105v1.169c.429 0 .84.018 1.25.018 1.605.036 1.623.895 1.623 1.9 0 1.242-.074 1.99-1.605 2.009-1.044.018-2.127.018-3.172.018-1.064 0-2.09 0-3.042-.018-1.605-.018-1.716-.767-1.716-1.644 0-1.461.018-2.247 1.641-2.265.355 0 .728-.018 1.102-.018v-1.151l-2.595.02c-.448 0-.672-.311-.672-.604 0-.311.224-.622.672-.622h9.313c.447 0 .671.31.671.603 0 .312-.224.622-.67.622l-2.8-.037Zm-1.101 9.132c0 .675.018 1.68.018 1.735 0 .11.019.931.019 1.06v.09c0 .95-.448 1.827-2.09 1.827-1.101 0-1.53-.237-1.53-.73 0-.366.26-.731.69-.731.037 0 .093.018.13.018.243.037.467.073.654.073.41 0 .67-.164.69-.767v-2.575l-4.049.037c-.43 0-.635-.292-.635-.584 0-.274.205-.567.635-.567h9.293c.429 0 .653.293.653.567 0 .292-.224.584-.653.584l-3.825-.037Zm-5.898 4.11c-.447 0-.764-.311-.764-.658 0-.238.148-.493.521-.676.728-.365 1.588-1.06 2.092-1.79a.736.736 0 0 1 .633-.329c.375 0 .747.275.747.621 0 .732-2.314 2.831-3.229 2.831Zm-3.246-6.886c-.504.968-1.083 1.899-1.662 2.63-.187.237-.41.328-.634.328-.392 0-.765-.327-.765-.694 0-.164.056-.328.204-.493.897-.968 2.166-2.867 2.857-4.62v-.31l-1.792.036h-.019c-.485 0-.729-.33-.729-.676 0-.329.244-.676.748-.676h1.772l-.055-3.306v-.017c0-.44.392-.659.783-.659.373 0 .766.22.766.659v.017s-.037 1.626-.056 3.306h1.212c.467 0 .69.347.69.676 0 .347-.223.676-.671.676h-.019l-1.212-.037c0 .603-.02 1.133-.02 1.553a.562.562 0 0 1 .17-.037c.353 0 2.126 1.188 2.126 1.845 0 .384-.355.712-.728.712-.167 0-.336-.073-.484-.255a8.386 8.386 0 0 0-1.084-1.188c.02 2.52.076 7.415.076 7.415 0 .439-.393.658-.766.658-.391 0-.783-.22-.783-.658l.075-6.885ZM886.49-145.89c-2.25 0-2.27 0-2.27.783s0 .783 2.233.783c2.175 0 2.27 0 2.27-.802 0-.745-.019-.764-2.232-.764Zm2.46-6.609c-.757-.019-1.57-.019-2.384-.019-.813 0-1.646 0-2.44.02-.68 0-.7.305-.7.63 0 .688.02.688 3.16.688 3.064 0 3.064-.02 3.064-.67 0-.42-.076-.649-.7-.649Zm-2.649 9.264c-3.102 0-3.537-.095-3.537-2.025 0-.802.094-1.566 1.494-1.624.626-.019 1.4-.038 2.195-.038.794 0 1.589.02 2.213.038 1.38.058 1.57.688 1.57 1.7 0 1.834-.474 1.949-3.935 1.949Zm.625-6.858c-1.098 0-2.214-.019-3.14-.037-1.76-.02-1.816-.65-1.816-1.757 0-1.337.34-1.681 1.74-1.701 1.041-.018 2.232-.038 3.406-.038 3.631 0 4.028 0 4.028 1.758 0 1.775-.567 1.775-4.218 1.775Zm-5.902 8.423c0 .44-.378.67-.775.67-.379 0-.777-.23-.795-.688 0-.821-.019-1.834-.019-2.827 0-1.012.019-2.006.019-2.808.018-1.07.795-1.834 2.156-1.853a358.86 358.86 0 0 1 4.748-.038c1.665 0 3.386.02 5.013.038 1.287.02 2.1.802 2.138 1.777.018.42.018.974.018 1.509 0 1.89.02 2.368.038 2.731v.077c0 .974-.661 1.91-2.592 1.91-1.266 0-1.89-.154-1.89-.821 0-.363.283-.745.737-.745a.47.47 0 0 1 .152.019c.378.057.737.114 1.039.114.587 0 .966-.19.966-.802 0-2.445 0-2.884-.038-3.63-.019-.515-.378-.859-.984-.878-1.456-.038-3.083-.038-4.654-.038-1.57 0-3.082 0-4.35.038-.568.019-.909.363-.927.898-.02.726-.02 1.7-.02 2.655 0 .974 0 1.93.02 2.674v.018Zm-1.343-12.835a.652.652 0 0 1-.681-.668c0-.344.227-.668.681-.668h6.015v-1.357c0-.535.416-.802.832-.802.417 0 .833.267.833.802v1.357h5.997c.435 0 .642.324.642.668 0 .325-.207.668-.642.668H879.68ZM880.926-127.987c-.513 0-.778-.392-.778-.765 0-.391.265-.764.778-.764h10.072c.475 0 .721.391.721.783 0 .373-.246.746-.72.746h-10.073Zm-1.006-5.484a.75.75 0 0 1-.78-.764c0-.392.266-.765.78-.765h12.084c.476 0 .724.392.724.783 0 .374-.248.746-.724.746H879.92ZM878.778-122c-.513 0-.778-.393-.778-.784 0-.373.265-.765.778-.765h14.5c.475 0 .722.392.722.783 0 .392-.247.766-.722.766h-14.5ZM882.327-106.925c0 .866 0 1.714.038 2.49.036 1.01.376 1.065 4.21 1.065a64.33 64.33 0 0 0 2.97-.055c.846-.036 1.109-.36 1.146-1.01.038-.812.076-1.642.076-2.49h-8.44Zm8.44-1.317c0-2.797-.113-2.977-1.147-2.995a133.707 133.707 0 0 0-6.127 0c-.79.018-1.092.342-1.11.938-.018.65-.056 1.353-.056 2.057h8.44Zm-3.666-6.405c-.112.649-.395 1.605-.545 2.092 1.24 0 2.481.018 3.421.054 1.372.055 2.236.758 2.294 1.859.056 1.029.075 2.111.075 3.176 0 1.173-.02 2.345-.075 3.463-.058 1.155-.865 1.84-2.35 1.913-1.033.054-2.35.09-3.628.09-1.166 0-2.275-.036-3.082-.072-1.673-.09-2.332-.811-2.369-1.966-.037-1.209-.075-2.418-.075-3.627 0-1.01.018-2.02.075-3.05.057-1.046.809-1.731 2.2-1.786.545-.018 1.202-.054 1.917-.054.13-.54.32-1.298.414-2.092l-5.64.018c-.489 0-.733-.344-.733-.685 0-.344.244-.686.733-.686h13.515c.508 0 .752.342.752.668 0 .36-.264.703-.752.703l-6.147-.018ZM889.15-83.475c.056-1.628.111-3.198.111-4.597v-.478c0-.518-.33-.805-.808-.805-.864-.02-1.838-.02-2.848-.02-.44 2.089-.955 4.196-1.415 5.9h4.96ZM878.735-82c-.496 0-.734-.346-.734-.709 0-.383.257-.766.734-.766h3.859c.458-1.762.954-3.83 1.395-5.88-1.157.02-2.295.038-3.307.038-.496 0-.752-.364-.752-.707 0-.365.256-.728.752-.748 1.066-.02 2.334-.039 3.62-.039.275-1.34.532-2.603.734-3.714h-5.198c-.496 0-.716-.345-.716-.709 0-.383.237-.766.716-.766h12.253c.496 0 .734.364.734.747 0 .364-.238.728-.734.728h-5.439a148.13 148.13 0 0 1-.734 3.696c1.01 0 1.985.018 2.865.038 1.213.019 2.096.632 2.096 1.915 0 .23-.038 2.317-.129 5.401h2.553c.46 0 .698.383.698.747s-.22.728-.698.728h-14.568ZM886.855-69.402l.019 7.745c0 .438-.437.657-.894.657-.437 0-.873-.22-.873-.657l.018-7.745-6.365.037c-.513 0-.76-.384-.76-.768 0-.401.265-.803.76-.803l6.365.018-.018-5.388c0-.475.436-.694.873-.694.438 0 .894.237.894.694l-.02 5.388 6.423-.018c.475 0 .723.402.723.803 0 .384-.23.768-.723.768l-6.422-.037ZM879.858-41c-.495 0-.858-.403-.858-.806 0-.274.154-.549.496-.714 2.382-1.135 4.495-2.966 6.19-5.035-.856-.513-1.751-.953-2.476-1.19-.286-.091-.42-.31-.42-.549 0-.386.345-.806.86-.806.609 0 2.455.99 2.989 1.281a24.046 24.046 0 0 0 2.552-4.503c.21-.477.553-.678.896-.678.476 0 .913.385.913.842 0 .641-2.361 4.322-2.97 5.181 1.028.678 2.228 1.613 2.228 2.253 0 .494-.419.934-.876.934-.229 0-.438-.11-.63-.33-.38-.476-.99-1.007-1.713-1.538-2.818 3.479-6.476 5.658-7.18 5.658M885-34.175c0-.562.477-.825.977-.825s1.023.281 1.023.825v11.35c0 .544-.5.825-1.023.825-.477 0-.977-.263-.977-.825v-11.35ZM885.746-1.996c0 .658-.47.996-.92.996-.413 0-.826-.3-.826-.902v-.057c.094-2.142.15-6.372.15-9.68 0-1.447-.019-2.726-.037-3.553v-.017c0-.528.413-.791.825-.791.413 0 .844.263.844.808v.02l-.056 4.567h.094c.281 0 3.623.64 4.842 1.654a.86.86 0 0 1 .338.696c0 .47-.375.939-.826.939a.808.808 0 0 1-.507-.187c-.862-.64-2.945-1.41-3.959-1.58v2.163c0 1.936.018 3.758.038 4.905v.019Z" fill="#E95516"/><g transform="translate(878 7)"><mask id="f" fill="#fff"><use xlink:href="#e"/></mask><path d="m10.114.969-.235 6.544v.037c0 .262.11.374.254.374.487 0 2.907-1.608 4.659-4.993.198-.354.47-.505.722-.505.416 0 .813.356.813.823 0 .151-.037.3-.126.468-2.096 3.89-5.364 6.17-6.61 6.17-.724 0-1.283-.485-1.283-1.42V8.28c.127-1.701.252-6.208.252-7.311 0-.58.398-.879.778-.879.397 0 .776.3.776.86v.019ZM.54 9.981c0-.281.164-.58.561-.766C3.757 7.98 5.364 5.25 5.364 1.848c0-.168-.018-.338-.018-.505v-.056c0-.599.38-.86.759-.86.83 0 .83.766.83 1.14 0 6.357-4.678 9.218-5.563 9.218a.82.82 0 0 1-.83-.804Z" fill="#E95516" mask="url(#f)"/></g><path d="M880.43 33.8c0 1.35.698 2.057 1.162 2.057 1.02 0 3.13-4.096 3.363-6.953.017-.229.07-.42.16-.553-2.842.534-4.684 3.2-4.684 5.449m6.079-4.858c0 1.81-2.52 8.685-4.988 8.685-1.342 0-2.522-1.713-2.522-3.675 0-2.877 2.377-6.952 7.116-6.952 3.434 0 5.884 2.437 5.884 5.58 0 4.8-4.882 6.42-5.632 6.42-.572 0-.913-.401-.913-.82 0-.362.232-.705.787-.838 2.27-.533 4.22-2.133 4.22-4.82 0-2.228-1.645-4.133-4.22-4.247.178.153.268.363.268.667M887.636 51.617a.536.536 0 0 1-.563-.538c0-.27.2-.537.563-.537h2.6c.381 0 .563.268.563.537 0 .27-.182.538-.563.538h-2.6Zm0-1.938a.536.536 0 0 1-.563-.537c0-.25.2-.518.563-.518h2.419c.38 0 .562.268.562.518 0 .268-.182.537-.562.537h-2.419Zm-6.745 0a.536.536 0 0 1-.564-.537c0-.25.201-.518.564-.518h2.418c.383 0 .564.268.564.518 0 .268-.181.537-.564.537h-2.418Zm-.182 1.938a.536.536 0 0 1-.564-.538c0-.27.202-.537.564-.537h2.6c.383 0 .564.268.564.537 0 .27-.181.538-.564.538h-2.6Zm-.326 2.205c-.4 0-.582-.288-.582-.575 0-.306.199-.614.582-.614h10.361c.383 0 .565.287.565.595 0 .288-.182.594-.565.594h-10.361Zm4.217 2.322c-.145.44-.527 1.343-.855 1.995 1.637-.115 3.254-.25 4.763-.441-.982-.633-.982-.652-.982-.902 0-.307.31-.633.692-.633.637 0 3.563 1.957 3.563 3.031 0 .44-.345.806-.71.806-.216 0-.454-.115-.653-.403a7.056 7.056 0 0 0-.746-.903c-3.327.577-8.872 1.076-9.927 1.076-.509 0-.763-.366-.763-.73 0-.346.218-.69.673-.71.836-.018 1.69-.057 2.545-.095.236-.518.601-1.458.8-2.091h-4.073c-.4 0-.582-.288-.582-.576 0-.326.202-.633.582-.633H892.2c.38 0 .563.307.563.595 0 .307-.182.614-.563.614h-7.6Zm6.89-7.578c-.018-.652-.272-.863-1.091-.882-1.127-.02-2.636-.04-4.18-.04v3.55c0 .538-.364.807-.728.807s-.728-.269-.728-.806v-3.55c-1.581 0-3.108.02-4.163.039-.89.019-1.108.326-1.127.94v1.284c0 .443-.381.673-.745.673-.728 0-.728-.539-.728-1.458 0-1.305.02-2.609 1.964-2.629 1.436-.019 3.09-.038 4.799-.038v-1.113h-4.49c-.437 0-.655-.326-.655-.652 0-.345.238-.691.655-.691h10.49c.418 0 .637.326.637.672 0 .326-.22.671-.636.671h-4.546v1.113c1.618 0 3.235.019 4.654.038 1.072.02 2.072.537 2.109 1.727.019.269.019.614.019.96 0 .786-.02 1.361-.765 1.361-.382 0-.744-.23-.744-.671v-1.305ZM880.43 73.8c0 1.35.698 2.057 1.162 2.057 1.02 0 3.13-4.096 3.363-6.953.017-.229.07-.42.16-.553-2.842.534-4.684 3.2-4.684 5.449m6.079-4.858c0 1.81-2.52 8.685-4.988 8.685-1.342 0-2.522-1.713-2.522-3.675 0-2.877 2.377-6.952 7.116-6.952 3.434 0 5.884 2.437 5.884 5.58 0 4.8-4.882 6.42-5.632 6.42-.572 0-.913-.401-.913-.82 0-.362.232-.705.787-.838 2.27-.533 4.22-2.133 4.22-4.82 0-2.228-1.645-4.133-4.22-4.247.178.153.268.363.268.667M878.715 99c-.45 0-.715-.389-.715-.76 0-.352.244-.703.715-.703h6.035l-.02-12.76c0-.518.414-.777.828-.777.433 0 .846.26.846.778v4.926h5.32c.47 0 .697.37.697.74s-.226.74-.696.74h-5.321v6.353h6.92c.45 0 .676.37.676.721 0 .372-.226.742-.677.742h-14.608ZM891.992 104.664c-.752 0-1.347.594-1.347 1.345a1.35 1.35 0 0 0 1.347 1.363c.75 0 1.362-.611 1.362-1.363a1.35 1.35 0 0 0-1.362-1.345m0 3.336a1.99 1.99 0 0 1-1.992-1.99c0-1.101.891-2.01 1.992-2.01 1.1 0 2.008.909 2.008 2.01 0 1.1-.909 1.99-2.008 1.99M846.426-166.255c0 .592.018 1.092.035 1.499.055 1.313.56 1.369 4.148 1.369 3.084 0 3.86-.019 3.895-1.406.018-.407.018-.907.018-1.462h-8.096Zm8.096-5.178c0-.5 0-.943-.018-1.313-.055-1.37-.631-1.37-3.913-1.37-1.082 0-2.146.02-2.724.056-1.423.074-1.441.759-1.441 2.627h8.096Zm-8.115 3.846h8.132v-2.515h-8.132v2.515Zm7.322-7.786c1.37.074 2.164.962 2.2 2.072.054 1.108.071 2.81.071 4.494 0 1.683-.017 3.33-.053 4.347-.054 1.628-.974 2.33-2.67 2.405a49.47 49.47 0 0 1-2.47.055c-4.22 0-5.68-.038-5.752-2.423a145.22 145.22 0 0 1-.055-4.292c0-1.61.02-3.236.055-4.475.035-1.277.722-2.128 2.326-2.183.324-.019.793-.019 1.353-.019.216-.721.432-1.628.504-2.09.054-.352.415-.518.776-.518.432 0 .901.24.901.703 0 .333-.36 1.332-.595 1.887 1.317 0 2.67 0 3.409.037ZM855.452-153.65c-.44-.677-.898-1.007-1.356-1.318a.438.438 0 0 1-.2-.348c0-.293.366-.64.731-.64.514 0 1.998 1.208 1.998 1.812 0 .403-.385.732-.733.732a.52.52 0 0 1-.44-.238Zm1.21 12.375a.718.718 0 0 1-.678-.439c-.44-.879-1.21-1.666-1.905-2.252-.147-.11-.203-.238-.203-.366 0-.33.367-.622.79-.622.768 0 2.876 2.068 2.876 2.837 0 .495-.458.842-.88.842Zm-4.326.129c-.311 0-.623-.184-.714-.605-.201-1.007-.624-1.775-1.007-2.361a.487.487 0 0 1-.092-.293c0-.311.348-.55.715-.55 1.007 0 1.943 2.49 1.943 3.003 0 .513-.422.806-.845.806Zm-4.6-.806c0-.842-.164-1.666-.402-2.27-.037-.073-.037-.147-.037-.202 0-.33.33-.512.677-.512.24 0 .495.091.643.311.403.586.678 1.83.678 2.691 0 .55-.44.842-.862.842-.348 0-.696-.238-.696-.714v-.146Zm-5.258.256c0-.22.127-.457.42-.64.57-.367 1.43-1.264 1.631-2.07.092-.384.386-.548.698-.548.365 0 .75.256.75.677 0 .805-1.465 3.277-2.676 3.277-.457 0-.823-.33-.823-.696Zm14.147-9.83-3.096-.037c.678 2.124 2.455 3.827 4.013 4.614.311.165.458.42.458.695 0 .384-.312.787-.77.787-.935 0-3.463-2.214-4.435-4.704-1.319 3.917-4.801 4.887-5.058 4.887-.422 0-.715-.366-.715-.732 0-.275.165-.549.532-.658 2.547-.806 3.701-2.783 4.16-4.889l-1.577.037h-.036c-.421 0-.623-.293-.623-.586v-.073c-2.181 5.857-6.085 7.267-6.433 7.267-.44 0-.787-.366-.787-.75 0-.239.145-.477.495-.623 1.227-.513 2.235-1.336 3.078-2.288a6.29 6.29 0 0 0-1.375-.605.53.53 0 0 1-.402-.53c0-.347.275-.732.695-.732.312 0 1.228.421 1.87.842.256-.366.495-.769.696-1.153a5.967 5.967 0 0 0-1.43-.64c-.293-.092-.42-.312-.42-.55 0-.348.274-.714.696-.714.293 0 1.063.348 1.686.732.238-.622.495-1.373.495-1.593 0-.256-.184-.366-.495-.366-.44 0-1.155.019-1.833.037-.733 1.41-1.631 2.746-2.675 3.845-.22.238-.458.33-.66.33a.677.677 0 0 1-.679-.678c0-.183.074-.385.238-.55 1.21-1.19 2.566-3.203 3.318-5.51.128-.421.403-.586.696-.586.367 0 .752.311.752.732 0 .183-.037.275-.422 1.227.605-.018 1.21-.037 1.631-.037h.037c1.173 0 1.668.568 1.668 1.3 0 .202-.037.33-.312 1.245a.65.65 0 0 1 .53-.256h1.78c.037-.348.037-.678.037-1.025 0-.806-.057-1.612-.074-2.416v-.02c0-.494.366-.732.732-.732.386 0 .77.258.79.714 0 .604.017 1.117.017 1.538 0 .86-.017 1.446-.074 1.94h3.281c.422 0 .624.312.624.642 0 .31-.202.622-.605.622h-.019ZM852.277-133.365v1.187c.49 0 .963-.019 1.435-.019.53 0 .794-.204.812-.723 0-.13.02-.278.02-.445h-2.267Zm2.267-.927c0-.148-.02-.278-.02-.39-.037-.5-.264-.704-.83-.722-.454 0-.926-.019-1.417-.019v1.131h2.267Zm-5.706 2.132h2.078v-1.205h-2.078v1.205Zm0-2.132h2.078v-1.13h-2.078v1.13Zm2.305 11.013c.113-.316.246-.668.397-1.168a.748.748 0 0 1 .094-.167c-.584 0-1.209.02-1.813.02-.605 0-1.21-.02-1.814-.02l.058.055c.225.241.584.816.716 1.28h2.362Zm2.55-3.114c0-.5-.207-.669-.698-.669-.926-.017-1.965-.017-3.022-.017-1.058 0-2.117 0-3.06.017-.605 0-.7.204-.7.63 0 .501.113.705.737.705.888.02 1.965.02 3.04.02 3.534 0 3.552 0 3.666-.41.019-.09.038-.183.038-.276Zm-6.196-6.972h-2.19v.482c.018.482.207.668.868.686.434 0 .87.019 1.322.019v-1.187Zm0-2.058c-.453 0-.906.019-1.342.019-.622.018-.83.352-.849.779v.333h2.19v-1.13Zm4.836-1.037c.568 0 1.134 0 1.7.017 1.172.019 1.852.669 1.927 1.502.02.278.038.63.038 1.002 0 1.724-.018 2.725-1.984 2.78-1.227.038-2.53.056-3.816.056-1.472 0-2.928-.018-4.268-.055-2.06-.056-2.06-.964-2.06-2.707 0-1.595.038-2.559 2.022-2.578.51-.017 1.02-.017 1.548-.017v-.854c0-.462.36-.686.738-.686.359 0 .717.224.717.686v.835h1.966v-.835c0-.462.376-.686.735-.686.38 0 .737.224.737.686v.854Zm-9.577 7.453c-.454 0-.662-.297-.662-.594 0-.315.227-.63.662-.63h14.433c.415 0 .622.296.622.612a.597.597 0 0 1-.622.612h-14.433ZM842.68-122c-.472 0-.68-.297-.68-.612 0-.334.227-.667.68-.667h4.516c-.115-.26-.246-.482-.378-.742a.412.412 0 0 1-.058-.185c0-.185.132-.334.303-.427h-.434c-1.872-.037-1.908-.852-1.908-1.779 0-1.094.225-1.687 1.832-1.706 1.285-.02 2.625-.02 3.987-.02 1 0 2.001 0 3.021.02 1.455.019 1.644.65 1.644 1.706 0 .852-.019 1.76-1.795 1.78h-.642c.15.11.245.259.245.444 0 .056 0 .093-.359.909h4.686c.433 0 .66.315.66.649 0 .315-.227.63-.66.63h-14.66ZM856.487-108.437c-.443-1.054-1.383-2.497-2.805-3.274-.221-.128-.332-.314-.332-.517 0-.333.314-.666.738-.666 1.016 0 3.912 2.737 3.912 4.05a.88.88 0 0 1-.849.888c-.278 0-.535-.148-.664-.481Zm-10.24-2.275c-.793.13-1.494.204-1.974.204-.535 0-.792-.352-.792-.722s.257-.74.755-.776c.59-.036 1.163-.036 1.827-.093l1.015-.092c.221-.832.498-1.998.627-3.089.055-.48.442-.72.83-.72.387 0 .757.259.757.74 0 .444-.517 2.626-.59 2.902l.83-.073c.092 0 .184-.018.277-.018 1.088 0 2.379.535 2.379 3.032 0 5.548-2.693 6.121-3.819 6.121-.35 0-1.809-.074-1.809-.98 0-.388.315-.76.758-.76.073 0 .146 0 .221.02.294.074.572.13.83.13 2.307 0 2.324-4.217 2.324-4.531 0-1.091-.294-1.683-1.144-1.683-.146 0-.423.018-1.218.092-.921 2.885-2.157 5.437-3.615 7.509-.239.35-.59.499-.904.499-.423 0-.812-.296-.812-.74 0-.222.092-.462.332-.74 1.273-1.424 2.491-3.735 3.358-6.306l-.444.074ZM855.936-89.99c-.817-.52-1.71-.818-2.736-.818-.116 0-.228.019-.344.019h-.057c-.418 0-.626-.298-.626-.615 0-.651.608-.763 1.33-.763.456 0 3.497.224 3.497 1.49 0 .427-.323.8-.722.8a.625.625 0 0 1-.342-.112m-5.854 5.806c-.95 0-1.997.354-1.997.93 0 .466.629.913 1.597.913.931 0 1.825-.503 1.996-1.303l.039-.26a4.947 4.947 0 0 0-1.635-.28M849.815-81c-1.634 0-3.116-1.005-3.116-2.252 0-1.265 1.52-2.177 3.573-2.177.514 0 1.027.055 1.521.167 0-.167-.02-.372-.02-.576 0-.559-.038-1.192-.056-1.75v-.205c0-.875.076-1.6.816-1.6.382 0 .762.242.762.707 0 .037 0 .093-.02.149-.057.316-.096.502-.096.912v.502c0 .41 0 .875.02 1.303 0 .298.038.65.058 1.005 1.254.503 2.736 1.47 2.736 2.27 0 .484-.4.856-.837.856-.227 0-.455-.111-.665-.353-.323-.391-.778-.782-1.312-1.136-.342 1.229-1.767 2.178-3.364 2.178m-4.18-4.838a1.01 1.01 0 0 1-.856.483c-.399 0-.779-.26-.779-.67 0-.148.057-.336.19-.52.97-1.397 2.376-3.407 3.27-5.361-.457.093-.875.13-1.293.13-1.958 0-2.034-.614-2.034-.893 0-.354.267-.708.741-.708.095 0 .21.019.342.057.306.092.666.148 1.065.148.513 0 1.102-.093 1.692-.223.208-.652.303-1.303.418-1.992.057-.427.398-.613.741-.613.398 0 .798.24.798.706 0 .317-.115.82-.323 1.452.342-.149.665-.298.911-.465a.885.885 0 0 1 .439-.15c.38 0 .72.299.72.67 0 .336-.283.932-2.565 1.564-.892 2.122-2.185 4.356-3.477 6.385M855.909-74.379c-.018-.324-.198-.496-.685-.515-.27 0-.559-.019-.865-.019l-.018 1.773h.92c.487-.018.63-.228.648-.514v-.725Zm-3.981 1.259h1.278v-1.793h-1.278v1.793Zm-1.892 6.102c0 .42 0 .477 2.774.477 2.307 0 2.397-.019 2.397-.763 0-.496-.09-.725-.632-.725-.576-.019-1.46-.019-2.306-.019-1.946 0-2.18 0-2.233.42v.61Zm.738-7.895-.775.02c-.558 0-.684.228-.684.877 0 .59.072.876.702.876h.775l-.018-1.773Zm1.838 2.823c-1.027 0-2.036 0-2.937-.02-1.37-.037-1.604-.63-1.604-1.64 0-1.41.054-2.212 1.568-2.23.901-.02 1.928-.02 2.99-.02 1.046 0 2.11 0 3.029.02 1.46.037 1.512.934 1.512 1.868 0 1.183-.09 1.983-1.512 2.002-.974.02-2.02.02-3.046.02Zm-4.523 2.079c-.377 0-.558-.305-.558-.61 0-.325.181-.63.558-.63h9.37c.36 0 .541.305.541.61 0 .325-.181.63-.542.63h-9.369Zm3.064 5.911c-2.397 2.06-4.757 2.995-5.064 2.995-.413 0-.666-.343-.666-.687a.67.67 0 0 1 .47-.648c2.232-.859 3.369-1.507 5.08-3.033-2 0-2.289-.515-2.289-1.735 0-1.946.216-1.946 4.18-1.946 3.225 0 3.676 0 3.676 1.85 0 1.583-.235 1.85-3.225 1.85a5.28 5.28 0 0 0 .919 1.507l.071-.038c.63-.305 1.243-.725 1.892-1.278.127-.095.253-.153.378-.153.343 0 .667.325.667.687 0 .496-.611.896-2.161 1.64a7.469 7.469 0 0 0 2.432 1.334c.306.097.45.345.45.61 0 .383-.288.784-.739.784-1.009 0-4.27-2.46-4.81-4.75l.035 4.52c0 .4-.341.591-.667.591-.323 0-.647-.19-.647-.571l.018-3.529Zm-6.81-5.264-1.353.02c-.432 0-.666-.344-.666-.687 0-.325.234-.668.666-.668h1.352v-3.203l-1.55.02c-.432 0-.648-.344-.648-.668 0-.344.216-.687.649-.687h4.342c.396 0 .594.343.594.667 0 .344-.198.687-.594.687l-1.46-.019v3.203h1.135c.396 0 .596.343.596.668 0 .343-.2.686-.596.686h-1.134v3.49c.54-.247 1.044-.514 1.46-.743a.834.834 0 0 1 .34-.096c.326 0 .577.306.577.649 0 .248-.126.496-.414.648-.99.554-4.252 2.232-4.955 2.232-.433 0-.684-.381-.684-.763 0-.286.144-.591.487-.687.593-.19 1.224-.42 1.855-.667v-4.082ZM849.82-47.614c0 .145.018.308.018.436.036.602.289.62 2.65.62 2.503 0 2.701 0 2.719-.637 0-.129.02-.274.02-.42h-5.407Zm5.406-.95c0-.126-.019-.253-.019-.38-.036-.62-.197-.62-2.72-.62-2.216 0-2.613 0-2.649.636 0 .11-.018.238-.018.365h5.406Zm2.035 3.83c.072 0 .739.016.739.71 0 2.15-.63 2.75-2.99 2.75-1.875 0-2.163-.692-2.163-2.059 0-.691.054-1.603.073-2.223-.92 0-1.856-.018-2.65-.035-1.783-.056-1.801-1.059-1.801-2.389 0-.418.018-.837.036-1.202.036-.674.54-1.257 1.783-1.294.686-.019 1.423-.036 2.2-.036.755 0 1.549.017 2.287.036 1.153.037 1.765.602 1.801 1.294.019.345.037.73.037 1.094 0 .382-.018.764-.037 1.111-.036.747-.702 1.35-1.801 1.386-.163 0-.325.017-.487.017a54.761 54.761 0 0 0-.072 2.296c0 .692.27.747 1.01.747 1.098 0 1.405-.127 1.405-1.476v-.164c0-.383.306-.564.63-.564Zm-8.63-9.35c-.415 0-.613-.292-.613-.601 0-.292.198-.584.613-.584h3.08v-1.075c0-.437.397-.656.776-.656.397 0 .774.219.774.656l-.018 1.075h3.243c.433 0 .631.292.631.584 0 .31-.198.6-.63.6h-7.856ZM846.397-41c-.505 0-.775-.364-.775-.729 0-.328.216-.637.667-.693 2.108-.255 3.512-.91 4.179-2.442.145-.346.433-.492.703-.492.343 0 .686.257.686.675 0 .109-.037.237-.09.364-1.299 3.024-5.262 3.317-5.37 3.317Zm1.784-10.332c-.397 0-.613-.274-.632-.548a.522.522 0 0 1-.487.274h-1.224l-.018 4.265c.487-.202.937-.42 1.352-.639a.503.503 0 0 1 .27-.072c.342 0 .593.327.593.655 0 .219-.125.457-.396.603-1.098.583-4.25 2.06-4.936 2.06-.45 0-.703-.365-.703-.731 0-.292.162-.583.523-.693.65-.182 1.279-.381 1.91-.62v-4.828h-1.604c-.397 0-.613-.328-.613-.656 0-.31.216-.637.613-.637h1.604l-.018-3.244c0-.456.36-.675.72-.675s.721.219.721.675l-.018 3.244h1.224c.397 0 .596.328.596.656a.613.613 0 0 1 .523-.256l2.09.019a5.902 5.902 0 0 0-.416-.766.389.389 0 0 1-.07-.218c0-.292.377-.473.737-.473.776 0 1.172 1.293 1.225 1.457h1.568c.145-.328.306-.766.361-1.112.053-.273.27-.383.54-.383.396 0 .847.255.847.638 0 .146-.162.492-.323.857l2.575-.019c.415 0 .63.292.63.584 0 .291-.215.583-.63.583h-9.134ZM856.94-30.17c-.291-.35-1.224-.975-1.68-1.16-.293-.112-.402-.313-.402-.498 0-.313.292-.627.694-.627.365 0 2.448.866 2.448 1.751 0 .387-.31.738-.658.738a.532.532 0 0 1-.402-.203m-1.771 1.568c-.293-.35-1.207-1.033-1.646-1.218-.274-.11-.382-.313-.382-.498 0-.295.291-.608.693-.608.183 0 2.43.885 2.43 1.789 0 .405-.329.756-.676.756-.146 0-.292-.074-.419-.221M853.45-22h-.035c-3.966 0-6.121-2.692-6.121-5.66 0-1.974.95-3.523 1.516-4.205.128-.148.182-.24.182-.296 0-.018-.017-.037-.054-.037-.146 0-.62.166-2.887.996-.456.166-1.699.609-2.12.609-.583 0-.931-.443-.931-.886 0-.368.238-.737.767-.847 3.965-.903 5.062-1.18 6.45-1.586 3.05-.886 4.567-1.088 5.152-1.088.676 0 .968.461.968.904 0 .663-.712.83-1.479.83h-.365c-.915 0-1.937.294-2.614.534-1.424.516-3.123 2.6-3.123 4.831 0 2.139 1.443 4.13 4.385 4.13h.31c.785 0 1.187.444 1.187.887 0 .441-.384.884-1.188.884M856.638-13.377c-.447-.797-1.465-1.712-2.241-2.171a.793.793 0 0 1-.397-.696c0-.378.259-.756.673-.756.621 0 3.327 1.891 3.327 3.085 0 .538-.397.915-.776.915-.224 0-.43-.118-.586-.377" fill="#E95516"/><g transform="translate(806 -178)"><mask id="h" fill="#fff"><use xlink:href="#g"/></mask><path d="M13.148 14.017a5.35 5.35 0 0 0-.668-1.205.312.312 0 0 1-.09-.23c0-.19.215-.325.432-.325.38 0 1.156 1.09 1.156 1.473 0 .287-.27.536-.504.536-.127 0-.254-.077-.326-.25Zm-1.716.459c-.09-.536-.325-1.128-.523-1.53-.038-.057-.038-.115-.038-.172 0-.23.218-.364.435-.364a.53.53 0 0 1 .45.25c.271.439.634 1.338.634 1.625 0 .363-.29.593-.543.593-.18 0-.36-.115-.415-.402ZM9.644 5.22v1.013h.903c2.62 0 2.763 0 2.8-.688 0-.077.018-.192.018-.325h-3.72Zm3.721-1.052c0-.134-.018-.268-.018-.364-.054-.67-.127-.67-1.824-.67-1.77 0-1.843.04-1.86.728l-.019.306h3.721ZM10.042 15.24c-.235 0-.452-.153-.452-.46v-.056c0-.115.018-.23.018-.345 0-.516-.072-1.07-.126-1.434v-.096a.4.4 0 0 1 .397-.42c.217 0 .452.153.524.42.108.46.235 1.224.235 1.76a.617.617 0 0 1-.596.63Zm-.416-5.66v.439c0 .554.271.707.795.707.704-.018 1.445-.018 2.22-.018.562 0 1.157 0 1.79.018 1.01.02 1.444.594 1.444 1.664 0 .65-.27 4.743-3.16 4.743-.542 0-1.175-.134-1.934-.44-.234-.095-.36-.363-.36-.65 0-.363.199-.746.56-.746.072 0 .162.039.27.077.506.248.94.363 1.338.363 1.696 0 1.967-2.869 1.967-3.136 0-.46-.235-.689-.649-.689h-.94c-.866 0-1.751.02-2.763.038h-.09c-.957 0-1.68-.306-1.698-1.452-.018-.996-.018-1.99-.018-2.983 0-1.34 0-2.678.018-3.921.036-1.55 1.066-1.607 2.041-1.607.108-.554.253-1.377.253-1.377.054-.325.343-.497.65-.497.343 0 .704.23.704.689 0 .21-.162.746-.288 1.166 1.66 0 2.655.02 2.8 1.32.016.287.035.918.035 1.473 0 1.491-.055 2.505-1.499 2.562-.668.02-1.265.037-1.933.037-.469 0-.957-.018-1.553-.018v1.014h6.142c.342 0 .504.306.504.612s-.162.612-.504.612H9.625Zm-2.763 6.08a.69.69 0 0 1 .198-.477c.344-.383.813-1.416.904-2.257.036-.344.27-.497.523-.497.29 0 .578.21.578.554 0 1.033-.668 3.27-1.59 3.27-.324 0-.613-.267-.613-.592ZM5.726 6.79c-.344 0-.652-.23-.652-.536 0-.114.038-.23.128-.344.614-.784 1.065-1.74 1.39-2.6.09-.23.27-.326.487-.326.362 0 .778.287.778.67 0 .382-.885 1.988-1.59 2.868a.679.679 0 0 1-.541.268ZM4.209 5.87c-.236 0-.434-.134-.507-.44-.144-.67-.324-.956-.524-1.32a.55.55 0 0 1-.054-.23c0-.305.325-.516.651-.516.795 0 1.156 1.703 1.156 1.798 0 .42-.38.708-.722.708Zm-2.187.574c-.18 0-.378-.115-.469-.364-.252-.63-.47-.822-.722-1.147a.543.543 0 0 1-.127-.345c0-.325.343-.573.687-.573.63 0 1.354 1.358 1.354 1.683 0 .42-.379.746-.723.746ZM.956 3.175c-.414 0-.613-.345-.613-.67 0-.325.199-.67.56-.67 2.077-.038 4.19-.42 5.851-1.051.073-.039.145-.039.218-.039.378 0 .631.345.631.708 0 .268-.143.535-.487.67-1.842.745-5.382 1.051-6.16 1.051Zm3.794 8.451c-.054.325-.109.65-.2.957.091-.058.2-.096.308-.096.524 0 2.095 1.014 2.095 1.683 0 .402-.361.746-.686.746a.47.47 0 0 1-.38-.191c-.415-.593-1.01-.976-1.463-1.263a.348.348 0 0 1-.144-.134c-.957 2.391-3.16 3.443-3.558 3.443-.434 0-.686-.383-.686-.765 0-.249.127-.516.398-.631 1.895-.823 2.69-2.123 2.997-3.749l-2.546.02c-.38 0-.578-.307-.578-.63 0-.307.199-.613.578-.613l2.69.018c.02-.401.036-.82.036-1.26l-2.04.018a.596.596 0 0 1-.615-.612c0-.306.217-.612.615-.612h2.023l-.019-.86v-.038c0-.421.326-.632.652-.632.36 0 .721.23.721.689l.02.841h1.84c.362 0 .542.306.542.612s-.18.612-.541.612L4.966 9.16c0 .421-.019.842-.055 1.261l2.384-.018c.361 0 .524.306.524.612 0 .324-.163.63-.524.63l-2.546-.019Z" fill="#E95516" mask="url(#h)"/></g><path d="M809.43-147.2c0 1.352.698 2.057 1.162 2.057 1.02 0 3.13-4.096 3.363-6.953.017-.228.07-.418.16-.551-2.842.533-4.684 3.199-4.684 5.447m6.079-4.857c0 1.809-2.52 8.685-4.988 8.685-1.342 0-2.522-1.714-2.522-3.676 0-2.877 2.377-6.952 7.116-6.952 3.434 0 5.884 2.437 5.884 5.58 0 4.8-4.882 6.42-5.632 6.42-.572 0-.913-.4-.913-.82 0-.361.232-.704.787-.837 2.27-.534 4.22-2.134 4.22-4.82 0-2.227-1.645-4.132-4.22-4.247.178.153.268.362.268.667M818.891-129.297c-.552-.633-1.258-1.117-1.62-1.358-.173-.112-.248-.26-.248-.41 0-.335.382-.707.78-.707.27 0 2.328 1.117 2.328 1.917 0 .409-.363.8-.762.8-.154 0-.324-.075-.478-.242Zm-3.662 7.46c.02-1.265.04-2.345.04-10.884v-1.47c0-1.097.666-1.766 1.925-1.823.458-.018.896-.036 1.373-.036.478 0 .993.018 1.564.036 1.125.037 1.775.8 1.793 1.842.019.875.019 2.047.019 3.07 0 2.604.019 3.609.057 4.763v.075c0 1.096-.725 2.194-2.518 2.194-1.791 0-1.869-.576-1.869-.93 0-.391.248-.763.649-.763.057 0 .114 0 .172.02.362.093.706.147.992.147.61 0 1.01-.26 1.01-1.097v-.037c0-.037.02-1.173.02-2.642 0-1.45-.02-3.237-.058-4.54-.02-.744-.419-.8-1.868-.8-1.108 0-1.756 0-1.756.856 0 .391-.018 1.06-.018 1.898 0 3.33.056 9.246.056 10.12 0 .484-.4.726-.8.726-.401 0-.783-.223-.783-.707v-.018Zm-3.05-8.204c0-1.359-.02-3.22-.039-3.908v-.018c0-.465.382-.707.763-.707.382 0 .781.242.781.725v4c0 .354-.018.67-.018.948-.077 3.387-1.068 6.494-5.95 7.945a.963.963 0 0 1-.305.056.803.803 0 0 1-.82-.8c0-.298.17-.595.572-.688 2.994-.782 4.234-2.345 4.71-4.055-1.335.52-4.73 1.766-5.15 1.766-.437 0-.723-.41-.723-.8 0-.26.153-.521.477-.614l.952-.24v-.95c0-1.972-.038-4.167-.057-6.028v-.093c0-1.172.364-1.73 1.584-2.103a25.983 25.983 0 0 0 3.356-1.32.742.742 0 0 1 .324-.075.79.79 0 0 1 .782.763c0 .28-.152.54-.534.725-.839.41-2.098.838-3.184 1.135-.65.186-.8.466-.8 1.173v1.172a.781.781 0 0 1 .571-.26c.325 0 2.269 1.097 2.269 1.86 0 .41-.363.781-.744.781a.582.582 0 0 1-.477-.223c-.533-.614-1.22-1.098-1.563-1.34l-.039-.037c.02 1.414.04 2.921.04 4.353a90.935 90.935 0 0 0 3.164-1.06c.038-.39.058-.781.058-1.153v-.93ZM816.108-107.16c0 .331 0 .662-.018.974-.037.66-.457.991-.843.991-.347 0-.678-.275-.678-.79v-.11c.037-.459.037-.973.037-1.45-.257.147-2.436 1.359-2.436 2.589 0 .624.586 1.395 2.253 1.395.915 0 1.905-.202 2.456-.385.163-.055.31-.074.438-.074.532 0 .843.367.843.771 0 .368-.275.77-.898.937-.586.165-1.52.312-2.473.312-2.766 0-4.103-1.359-4.103-2.736 0-1.487 1.502-3.048 3.791-4.296-.22-.899-.714-1.285-1.318-1.285-.569 0-1.247.348-2.034 1.138-.568.753-.934.955-1.281.955-.386 0-.716-.257-.716-.606 0-.202.11-.422.367-.661 1.246-1.156 1.979-2.441 2.509-3.708a8.474 8.474 0 0 1-1.081.092c-.219 0-1.923 0-1.923-1.065a.7.7 0 0 1 .715-.698c.183 0 .384.055.604.202.183.128.477.165.806.165.312 0 .678-.037 1.008-.092l.365-.073c.148-.588.203-.955.24-1.653.035-.459.421-.679.806-.679.127 0 .77.037.77.734 0 .33-.092.735-.24 1.194.423-.147.806-.294 1.064-.44a.79.79 0 0 1 .42-.13c.386 0 .698.331.698.717 0 .642-.715.955-2.694 1.414a18.53 18.53 0 0 1-1.007 2.111c.274-.074.566-.11.841-.11 1.027 0 1.942.55 2.402 1.763.786-.405 1.593-.79 2.345-1.121.438-.184.97-.423 1.483-.698.201-.11.403-.164.568-.164.495 0 .806.404.806.826a.829.829 0 0 1-.495.752c-.568.275-.97.367-1.942.734-.843.312-1.704.716-2.49 1.102.035.349.035.753.035 1.157" fill="#E95516"/><g transform="translate(806 -97)"><mask id="j" fill="#fff"><use xlink:href="#i"/></mask><path d="M10.691 6.13c.181 1.432.634 2.882 1.355 4.188 1.103-1.977 1.32-3.609 1.32-3.717 0-.309-.182-.472-.597-.472H10.69Zm4.245-3.826c-.902-.02-2.041-.02-3.124-.02-.777 0-1.518 0-2.096.02-.596.017-.759.344-.759.815v1.795h.885c1.247 0 2.71.018 3.487.018.903 0 1.499.4 1.499 1.36 0 .798-.578 3.083-1.95 5.277.776.996 1.77 1.812 2.943 2.32.325.145.47.417.47.69 0 .398-.308.815-.796.815-.595 0-2.022-.852-3.412-2.702-1.175 1.47-2.98 2.811-3.667 2.811a.714.714 0 0 1-.722-.725c0-.254.127-.508.414-.635 1.283-.598 2.349-1.56 3.18-2.664-.975-1.669-1.662-3.59-1.77-5.35H8.94c-.054 3.01-.307 6.382-1.932 8.74-.182.253-.416.362-.65.362-.38 0-.741-.29-.741-.653 0-.109.018-.217.09-.326a.753.753 0 0 1-.524.217c-.216 0-.433-.126-.523-.417-.181-.562-.434-1.07-.741-1.468a.576.576 0 0 1-.108-.308c0-.308.307-.545.632-.545.686 0 1.499 1.65 1.499 1.977 0 .11-.036.2-.072.29C7.35 11.804 7.604 8.94 7.604 6.22c0-1.233-.054-2.448-.074-3.554 0-.96.561-1.631 1.79-1.669.849-.018 1.841-.036 2.834-.036.995 0 1.987.018 2.8.036.452 0 .668.328.668.653 0 .327-.216.654-.668.654h-.018ZM2.402 8.07c0 .58 0 1.088.018 1.504.018.49.126.636 1.246.636 1.066 0 1.066-.055 1.066-2.14h-2.33Zm0-1.142H4.75V4.969H2.402v1.958Zm2.33-3.083c0-2.067 0-2.12-1.174-2.12-.867 0-1.138.072-1.138.67 0 .4-.018.888-.018 1.45h2.33Zm-1.228 7.56c-1.138 0-2.385-.016-2.385-1.612 0-1.106-.017-2.539-.017-3.935s.017-2.756.017-3.752C1.137 1.252 1.59.672 2.438.618c.253-.02.578-.02.903-.02.47 0 .94 0 1.246.02.85.036 1.41.616 1.427 1.413.018 1.016.036 2.267.036 3.536 0 1.541-.018 3.083-.036 4.243-.037 1.595-1.354 1.595-2.51 1.595Zm-3.505 3.537c0-.163.074-.345.271-.508.742-.615 1.265-1.395 1.662-2.284.109-.218.29-.327.488-.327.38 0 .795.327.795.726 0 .381-1.518 3.082-2.439 3.082-.415 0-.777-.326-.777-.69Z" fill="#E95516" mask="url(#j)"/></g><path d="M817.986-60.287c-2.008 0-3.34-.172-3.34-2.161 0-1.205 0-3.576.038-4.665.019-.46.394-.689.77-.689.374 0 .75.228.75.689-.02.974-.057 2.332-.057 3.441 0 1.779.038 1.989 1.801 1.989 2.006 0 2.475-.593 2.475-1.874 0-.478.357-.708.732-.708.356 0 .845.191.845.842 0 2.524-1.52 3.136-4.014 3.136Zm-9.228-10.766c-.433 0-.638-.325-.638-.65 0-.306.205-.632.638-.632l4.538.02v-1.377l-5.908.019c-.431 0-.639-.325-.639-.67 0-.325.208-.65.64-.65l5.907.02v-1.225c0-.535.413-.802.807-.802.411 0 .825.267.825.802v1.224l5.871-.019c.43 0 .637.325.637.65 0 .345-.206.67-.637.67l-5.871-.02v1.378l4.52-.02c.412 0 .62.326.62.632 0 .325-.208.65-.62.65h-10.69Zm9.958 2.505c-1.5-.019-3.375-.038-5.195-.038-1.482 0-2.945.02-4.09.038-1.012.02-1.162.344-1.18.879v.9c0 .459-.395.707-.788.707-.714 0-.769-.498-.769-1.338 0-1.033.018-2.43 2.007-2.448 1.913-.02 3.845-.039 5.777-.039 1.594 0 3.189.02 4.764.039 1.388.019 2.194.784 2.214 1.758.018.192.018.402.018.631 0 .766 0 1.415-.844 1.415-.394 0-.77-.247-.77-.688v-.974c-.037-.69-.392-.823-1.144-.842ZM806.826-60c-.545 0-.826-.42-.826-.822 0-.345.206-.67.655-.708 3.415-.344 4.784-2.41 4.84-5.507 0-.537.375-.765.732-.765.394 0 .788.268.788.745 0 1.358-.32 6.35-6.058 7.057h-.132ZM814.9-42c-2.109 0-3.788-1.076-3.881-3.591-.019-.292-.019-.566-.019-.839 0-1.549.168-2.934.243-4.575.056-1.058.149-2.59.149-3.719v-.437c-.019-.839.783-.839.84-.839.447 0 .914.292.914.784 0 .71-.206 3.463-.262 4.156-.112 1.713-.335 3.208-.335 4.776 0 .948.037 2.716 2.313 2.716 1.287 0 2.985-.674 4.644-1.969.224-.182.448-.255.653-.255.467 0 .841.438.841.893 0 .237-.113.51-.374.711-1.734 1.367-3.88 2.188-5.727 2.188M818.97-22h-.039c-4.162 0-6.425-2.692-6.425-5.662 0-1.972.997-3.521 1.593-4.204.134-.147.21-.24.21-.295 0-.018-.018-.037-.058-.037-.038 0-.21.019-3.048.996-.48.166-1.784.609-2.225.609-.614 0-.978-.443-.978-.886 0-.368.25-.737.806-.848 4.775-1.051 5.79-1.31 6.79-1.585 1.015-.277 3.949-1.088 5.387-1.088.71 0 1.017.46 1.017.904 0 .663-.75.829-1.554.829h-.383c-.96 0-2.033.295-2.743.534-1.496.517-3.278 2.6-3.278 4.832 0 2.139 1.515 4.13 4.602 4.13h.326c.824 0 1.245.443 1.245.887 0 .441-.401.884-1.245.884M820.329-7.174c-.279-1.573-1.115-3.088-2.155-3.845-.203-.156-.296-.35-.296-.544 0-.369.316-.738.743-.738 1.058 0 3.379 3.106 3.379 4.836 0 .64-.464 1.01-.91 1.01-.333 0-.668-.234-.761-.72M808.093-9.97c-.057-.932-.093-1.32-.093-1.825 0-.33 0-1.204.853-1.204.669 0 .78.544.78 1.379 0 .233-.018.408-.018.66 0 5.263 1.968 6.116 2.228 6.116.241 0 .631-.174 1.281-1.708.149-.35.409-.486.65-.486.427 0 .855.369.855.816 0 .389-1.133 3.223-2.842 3.223-1.522 0-3.416-2.252-3.694-6.97M813.03 16.889c-.428 0-1.675.092-1.675.866 0 .625.926.846 1.461.846.891 0 1.73-.533 1.942-1.4a5.3 5.3 0 0 0-1.728-.312Zm1.158-8.064c-.784.127-1.568.201-2.423.201-.41 0-1.3 0-1.3-.81 0-.35.248-.699.8-.699.072 0 .16 0 .232.017.268.037.553.056.856.056.588 0 1.265-.073 2.12-.202 0-.515-.017-.994-.017-1.437 0-.442.018-.828.018-1.14.018-.573.373-.811.748-.811.41 0 .82.275.82.755v.037c-.054.717-.089 1.51-.107 2.32 1.569-.331 1.586-.331 1.64-.331.427 0 .694.331.694.68 0 .332-.248.7-.819.792l-1.532.276c0 .793.017 1.566.035 2.339a21.072 21.072 0 0 0 1.586-.498c.125-.037.249-.054.357-.054.463 0 .748.33.748.699 0 .663-.517.792-2.637 1.344.035.663.07 1.306.124 1.878.054.553.125 1.29.143 1.97.909.369 1.728.866 2.317 1.363.303.257.409.553.409.829 0 .46-.303.847-.712.847-.197 0-.41-.092-.624-.296a7.99 7.99 0 0 0-1.551-1.123c-.41 1.198-1.693 2.173-3.19 2.173-1.532 0-2.923-1.013-2.923-2.228 0-1.252 1.355-2.172 3.369-2.172.517 0 1.016.054 1.515.166 0-.442-.054-.903-.09-1.4-.036-.497-.089-1.068-.125-1.694-.944.203-1.692.295-2.334.295-1.052 0-1.765-.11-1.765-.884 0-.387.268-.755.767-.755.089 0 .18.018.268.037.23.055.516.073.873.073.534 0 1.247-.055 2.12-.239-.035-.79-.07-1.62-.089-2.411l-.321.037ZM815.125 32.029a1.148 1.148 0 0 0-.784-.282c-1.103 0-1.27.94-1.27 1.24 0 .79.541 1.278 1.159 1.278 1.233 0 1.25-1.39 1.25-1.447 0-.32-.093-.433-.187-.621l-.168-.168Zm-.093-5.565c0-.941-.094-1.053-.094-1.617 0-.584.393-.847.805-.847.877 0 .877.827.877 1.072 0 .451-.019 1.11-.055 1.523-.02.151-.02.32-.02.47.598-.037 1.122-.075 1.57-.075.467-.018.859-.018 1.307-.018.448 0 .934 0 1.57.018.672.018 1.008.452 1.008.846 0 .413-.318.79-.898.79h-.11c-1.346-.113-1.794-.095-2.971-.113-.467 0-.972 0-1.495.018 0 .64.02 1.298.039 1.9 0 .282.036.695.055 1.128.43.658.616 1.429.616 2.218 0 2.783-2.447 6.223-3.773 6.223-.466 0-.84-.3-.84-.696 0-.282.168-.583.58-.883 1.027-.734 1.904-1.975 2.333-3.216-.43.302-.915.452-1.42.452-1.4 0-2.39-1.221-2.39-2.707 0-1.355 1.008-2.538 2.801-2.538.207 0 .393.019.58.056l-.055-1.824c-1.627.15-3.25.376-4.26.527-1.345.208-2.279.451-2.84.545-.055.019-.111.019-.167.019a.78.78 0 0 1-.785-.79c0-.376.243-.752.822-.846 1.065-.188 5.567-.77 7.21-.921v-.714ZM819.992 43.664c-.752 0-1.347.594-1.347 1.345a1.35 1.35 0 0 0 1.347 1.363c.75 0 1.362-.611 1.362-1.363a1.35 1.35 0 0 0-1.362-1.345m0 3.336A1.99 1.99 0 0 1 818 45.01c0-1.101.891-2.01 1.992-2.01 1.1 0 2.008.909 2.008 2.01 0 1.1-.909 1.99-2.008 1.99" fill="#E95516"/><path stroke="#979797" stroke-width=".5" stroke-linecap="square" d="M-12.747-67.5h11.294M127.053-67.5h11.294M303.853-67.5h11.294M449.653-67.5h11.294M572.453-67.5h11.294"/><path stroke="#EC5100" stroke-linecap="square" stroke-dasharray="0,4" d="M.475.5h114.05"/></g></svg>